<svg width="200" height="120" viewBox="0 0 200 120" fill="none" xmlns="http://www.w3.org/2000/svg">
<path fill-rule="evenodd" clip-rule="evenodd" d="M164.263 100.457H7.963C3.565 100.457 0 96.892 0 92.494V7.963C0 3.565 3.565 0 7.963 0H164.263C168.66 0 172.226 3.565 172.226 7.963V92.494C172.226 96.892 168.66 100.457 164.263 100.457" fill="#6277D7"/>
<path fill-rule="evenodd" clip-rule="evenodd" d="M73.037 19.414H15.707C14.764 19.414 14 18.65 14 17.707C14 16.765 14.764 16 15.707 16H73.037C73.979 16 74.744 16.765 74.744 17.707C74.744 18.65 73.979 19.414 73.037 19.414" fill="#8CE3E9"/>
<path fill-rule="evenodd" clip-rule="evenodd" d="M128.037 19.414H70.707C69.764 19.414 69 18.65 69 17.707C69 16.765 69.764 16 70.707 16H128.037C128.979 16 129.744 16.765 129.744 17.707C129.744 18.65 128.979 19.414 128.037 19.414" fill="#8CE3E9"/>
<path fill-rule="evenodd" clip-rule="evenodd" d="M73.037 46.414H15.707C14.764 46.414 14 45.65 14 44.707C14 43.765 14.764 43 15.707 43H73.037C73.979 43 74.744 43.765 74.744 44.707C74.744 45.65 73.979 46.414 73.037 46.414" fill="#D2DCFF"/>
<path fill-rule="evenodd" clip-rule="evenodd" d="M128.037 46.414H70.707C69.764 46.414 69 45.65 69 44.707C69 43.765 69.764 43 70.707 43H128.037C128.979 43 129.744 43.765 129.744 44.707C129.744 45.65 128.979 46.414 128.037 46.414" fill="#D2DCFF"/>
<path fill-rule="evenodd" clip-rule="evenodd" d="M115.037 73.414H57.707C56.764 73.414 56 72.65 56 71.707C56 70.765 56.764 70 57.707 70H115.037C115.979 70 116.744 70.765 116.744 71.707C116.744 72.65 115.979 73.414 115.037 73.414" fill="#8CE3E9"/>
<path fill-rule="evenodd" clip-rule="evenodd" d="M73.037 64.414H15.707C14.764 64.414 14 63.65 14 62.707C14 61.765 14.764 61 15.707 61H73.037C73.979 61 74.744 61.765 74.744 62.707C74.744 63.65 73.979 64.414 73.037 64.414" fill="#D2DCFF"/>
<path fill-rule="evenodd" clip-rule="evenodd" d="M104.037 55.414H46.707C45.764 55.414 45 54.65 45 53.707C45 52.765 45.764 52 46.707 52H104.037C104.979 52 105.744 52.765 105.744 53.707C105.744 54.65 104.979 55.414 104.037 55.414" fill="#D2DCFF"/>
<path fill-rule="evenodd" clip-rule="evenodd" d="M128.037 55.414H70.707C69.764 55.414 69 54.65 69 53.707C69 52.765 69.764 52 70.707 52H128.037C128.979 52 129.744 52.765 129.744 53.707C129.744 54.65 128.979 55.414 128.037 55.414" fill="#D2DCFF"/>
<path fill-rule="evenodd" clip-rule="evenodd" d="M110.037 28.414H52.707C51.764 28.414 51 27.65 51 26.707C51 25.765 51.764 25 52.707 25H110.037C110.979 25 111.744 25.765 111.744 26.707C111.744 27.65 110.979 28.414 110.037 28.414" fill="#D2DCFF"/>
<path fill-rule="evenodd" clip-rule="evenodd" d="M128.037 37.414H70.707C69.764 37.414 69 36.65 69 35.707C69 34.765 69.764 34 70.707 34H128.037C128.979 34 129.744 34.765 129.744 35.707C129.744 36.65 128.979 37.414 128.037 37.414" fill="#D2DCFF"/>
<path fill-rule="evenodd" clip-rule="evenodd" d="M45.995 28.414H15.707C14.764 28.414 14 27.65 14 26.707C14 25.765 14.764 25 15.707 25H45.995C46.938 25 47.702 25.765 47.702 26.707C47.702 27.65 46.938 28.414 45.995 28.414" fill="#D2DCFF"/>
<path fill-rule="evenodd" clip-rule="evenodd" d="M39.3477 55.414H15.3524C14.6053 55.414 14 54.65 14 53.707C14 52.765 14.6053 52 15.3524 52H39.3477C40.0947 52 40.7 52.765 40.7 53.707C40.7 54.65 40.0947 55.414 39.3477 55.414" fill="#8CE3E9"/>
<path fill-rule="evenodd" clip-rule="evenodd" d="M104.037 82.414H46.707C45.764 82.414 45 81.65 45 80.707C45 79.765 45.764 79 46.707 79H104.037C104.979 79 105.744 79.765 105.744 80.707C105.744 81.65 104.979 82.414 104.037 82.414" fill="#D2DCFF"/>
<path fill-rule="evenodd" clip-rule="evenodd" d="M128.037 82.414H70.707C69.764 82.414 69 81.65 69 80.707C69 79.765 69.764 79 70.707 79H128.037C128.979 79 129.744 79.765 129.744 80.707C129.744 81.65 128.979 82.414 128.037 82.414" fill="#D2DCFF"/>
<path fill-rule="evenodd" clip-rule="evenodd" d="M39.3477 82.414H15.3524C14.6053 82.414 14 81.65 14 80.707C14 79.765 14.6053 79 15.3524 79H39.3477C40.0947 79 40.7 79.765 40.7 80.707C40.7 81.65 40.0947 82.414 39.3477 82.414" fill="#D2DCFF"/>
<path fill-rule="evenodd" clip-rule="evenodd" d="M39.3477 73.414H15.3524C14.6053 73.414 14 72.65 14 71.707C14 70.765 14.6053 70 15.3524 70H39.3477C40.0947 70 40.7 70.765 40.7 71.707C40.7 72.65 40.0947 73.414 39.3477 73.414" fill="#D2DCFF"/>
<path fill-rule="evenodd" clip-rule="evenodd" d="M35.214 37.414H15.707C14.764 37.414 14 36.65 14 35.707C14 34.765 14.764 34 15.707 34H35.214C36.157 34 36.921 34.765 36.921 35.707C36.921 36.65 36.157 37.414 35.214 37.414" fill="#89AEFF"/>
<path fill-rule="evenodd" clip-rule="evenodd" d="M50.214 37.414H30.707C29.764 37.414 29 36.65 29 35.707C29 34.765 29.764 34 30.707 34H50.214C51.157 34 51.921 34.765 51.921 35.707C51.921 36.65 51.157 37.414 50.214 37.414" fill="#89AEFF"/>
<path fill-rule="evenodd" clip-rule="evenodd" d="M63.214 37.414H43.707C42.764 37.414 42 36.65 42 35.707C42 34.765 42.764 34 43.707 34H63.214C64.157 34 64.921 34.765 64.921 35.707C64.921 36.65 64.157 37.414 63.214 37.414" fill="#89AEFF"/>
<path fill-rule="evenodd" clip-rule="evenodd" d="M100.214 64.414H80.707C79.764 64.414 79 63.65 79 62.707C79 61.765 79.764 61 80.707 61H100.214C101.157 61 101.921 61.765 101.921 62.707C101.921 63.65 101.157 64.414 100.214 64.414" fill="#89AEFF"/>
<path fill-rule="evenodd" clip-rule="evenodd" d="M115.214 64.414H95.707C94.764 64.414 94 63.65 94 62.707C94 61.765 94.764 61 95.707 61H115.214C116.157 61 116.921 61.765 116.921 62.707C116.921 63.65 116.157 64.414 115.214 64.414" fill="#89AEFF"/>
<path fill-rule="evenodd" clip-rule="evenodd" d="M128.214 64.414H108.707C107.764 64.414 107 63.65 107 62.707C107 61.765 107.764 61 108.707 61H128.214C129.157 61 129.921 61.765 129.921 62.707C129.921 63.65 129.157 64.414 128.214 64.414" fill="#89AEFF"/>
<path fill-rule="evenodd" clip-rule="evenodd" d="M196.369 104.995H137.631C135.626 104.995 134 103.35 134 101.321V55.6732C134 53.6442 135.626 52 137.631 52H196.369C198.374 52 200 53.6442 200 55.6732V101.321C200 103.35 198.374 104.995 196.369 104.995" fill="#D2DCFF"/>
<path fill-rule="evenodd" clip-rule="evenodd" d="M196.369 120H137.631C135.626 120 134 118.355 134 116.326V95.7317H200V116.326C200 118.355 198.374 120 196.369 120" fill="#89AEFF"/>
<path fill-rule="evenodd" clip-rule="evenodd" d="M178.036 104.995H145.053C144.511 104.995 144.071 104.55 144.071 104.001C144.071 103.453 144.511 103.008 145.053 103.008H178.036C178.578 103.008 179.018 103.453 179.018 104.001C179.018 104.55 178.578 104.995 178.036 104.995" fill="#D2DCFF"/>
<path fill-rule="evenodd" clip-rule="evenodd" d="M162.478 110.413H145.053C144.511 110.413 144.071 109.969 144.071 109.42C144.071 108.872 144.511 108.426 145.053 108.426H162.478C163.02 108.426 163.461 108.872 163.461 109.42C163.461 109.969 163.02 110.413 162.478 110.413" fill="#D2DCFF"/>
<path fill-rule="evenodd" clip-rule="evenodd" d="M187.73 74.6106H170.305C169.763 74.6106 169.323 74.1659 169.323 73.6171C169.323 73.0688 169.763 72.6235 170.305 72.6235H187.73C188.273 72.6235 188.712 73.0688 188.712 73.6171C188.712 74.1659 188.273 74.6106 187.73 74.6106" fill="#6277D7"/>
<path fill-rule="evenodd" clip-rule="evenodd" d="M179.099 80.029H170.306C169.763 80.029 169.323 79.5844 169.323 79.0355C169.323 78.4867 169.763 78.042 170.306 78.042H179.099C179.641 78.042 180.081 78.4867 180.081 79.0355C180.081 79.5844 179.641 80.029 179.099 80.029" fill="#6277D7"/>
<path fill-rule="evenodd" clip-rule="evenodd" d="M153.625 85.1801C153.625 84.4991 154.171 83.9468 154.844 83.9468C150.1 83.9468 146.242 80.0431 146.242 75.2443C146.242 70.4455 150.1 66.5412 154.844 66.5412C159.588 66.5412 163.446 70.4455 163.446 75.2443C163.446 74.5627 163.993 74.011 164.665 74.011C165.339 74.011 165.884 74.5627 165.884 75.2443C165.884 69.0853 160.932 64.0746 154.844 64.0746C148.756 64.0746 143.804 69.0853 143.804 75.2443C143.804 81.4027 148.756 86.4134 154.844 86.4134C154.171 86.4134 153.625 85.8611 153.625 85.1801" fill="#89AEFF"/>
<path fill-rule="evenodd" clip-rule="evenodd" d="M164.666 74.011C163.993 74.011 163.447 74.5627 163.447 75.2443C163.447 80.0431 159.588 83.9468 154.845 83.9468C154.171 83.9468 153.625 84.4991 153.625 85.1801C153.625 85.8611 154.171 86.4134 154.845 86.4134C160.932 86.4134 165.884 81.4028 165.884 75.2443C165.884 74.5627 165.339 74.011 164.666 74.011" fill="#C26DEB"/>
</svg>
